<?xml version="1.0" encoding="UTF-8" standalone="no"?>
<svg
   enable-background="new 0 0 24 24"
   viewBox="0 0 24 24"
   id="researchgate"
   version="1.1"
   sodipodi:docname="researchgate.svg"
   inkscape:version="1.1.2 (0a00cf5339, 2022-02-04)"
   xmlns:inkscape="http://www.inkscape.org/namespaces/inkscape"
   xmlns:sodipodi="http://sodipodi.sourceforge.net/DTD/sodipodi-0.dtd"
   xmlns:xlink="http://www.w3.org/1999/xlink"
   xmlns="http://www.w3.org/2000/svg"
   xmlns:svg="http://www.w3.org/2000/svg">
  <defs
     id="defs9">
    <linearGradient
       id="linearGradient1515"
       inkscape:swatch="solid">
      <stop
         style="stop-color:#000000;stop-opacity:1;"
         offset="0"
         id="stop1513" />
    </linearGradient>
    <linearGradient
       inkscape:collect="always"
       xlink:href="#linearGradient1515"
       id="linearGradient1517"
       x1="0"
       y1="12"
       x2="24"
       y2="12"
       gradientUnits="userSpaceOnUse" />
  </defs>
  <sodipodi:namedview
     id="namedview7"
     pagecolor="#ffffff"
     bordercolor="#666666"
     borderopacity="1.0"
     inkscape:pageshadow="2"
     inkscape:pageopacity="0.0"
     inkscape:pagecheckerboard="0"
     showgrid="false"
     inkscape:zoom="28.416667"
     inkscape:cx="11.70088"
     inkscape:cy="11.982405"
     inkscape:window-width="3440"
     inkscape:window-height="1361"
     inkscape:window-x="0"
     inkscape:window-y="25"
     inkscape:window-maximized="1"
     inkscape:current-layer="researchgate" />
  <path
     id="path2"
     style="fill:url(#linearGradient1517);fill-opacity:1"
     d="M 2.4707031 0 C 1.1023975 0 0 1.1023975 0 2.4707031 L 0 21.529297 C 0 22.897603 1.1023975 24 2.4707031 24 L 21.529297 24 C 22.897603 24 24 22.897603 24 21.529297 L 24 2.4707031 C 24 1.1023975 22.897603 0 21.529297 0 L 2.4707031 0 z M 15.371094 5.6054688 C 16.721094 5.6054688 17 6.5644531 17 6.5644531 L 16.425781 6.9492188 C 16.425781 6.9492188 16.131094 6.2792969 15.371094 6.2792969 C 14.948094 6.2792969 14.316406 6.6699844 14.316406 7.3339844 L 14.316406 8.7695312 C 14.316406 9.4875312 14.669391 10.017578 15.275391 10.017578 C 16.030391 10.017578 16.427734 9.4330313 16.427734 8.5820312 L 15.46875 8.5820312 L 15.46875 8.0078125 L 17.097656 8.0078125 C 17.097656 9.1058125 17.348391 10.681641 15.275391 10.681641 L 15.273438 10.681641 C 14.025438 10.681641 13.548828 9.8400312 13.548828 8.9570312 L 13.548828 7.2324219 C 13.548828 6.5784219 14.021094 5.6054688 15.371094 5.6054688 z M 9.4335938 8.59375 C 11.131594 8.59375 12.427734 9.3641562 12.427734 11.035156 C 12.427734 12.165156 11.532172 13.296078 10.326172 13.580078 C 11.054172 14.876078 11.932938 16.022375 12.585938 16.734375 C 12.970937 17.152375 13.506969 17.521484 14.042969 17.521484 L 14.042969 17.912109 C 13.687775 18.072907 12.265128 18.233015 11.365234 17.152344 C 10.872234 16.584344 10.011469 15.367141 9.1054688 13.744141 C 8.6284687 13.744141 8.3179844 13.744891 7.9589844 13.712891 L 7.9589844 16.199219 C 7.9589844 17.458219 8.2807969 17.336469 9.3417969 17.480469 L 9.3417969 17.914062 C 8.9727969 17.898062 8.1035937 17.869141 7.4335938 17.869141 C 6.7315938 17.869141 6.0348125 17.902062 5.6328125 17.914062 L 5.6328125 17.480469 L 5.6347656 17.480469 C 6.4657656 17.325469 6.8125 17.409219 6.8125 16.199219 L 6.8125 10.339844 C 6.8125 9.1298437 6.4697656 9.2135938 5.6347656 9.0585938 L 5.6347656 8.625 C 7.0167656 8.679 8.4805938 8.59375 9.4335938 8.59375 z " />
  <path
     d="M9.032,13.078c1.323,0,2.127-0.788,2.127-1.961c0-1.194-0.745-1.848-1.993-1.848c-0.402,0-0.863,0-1.206,0.032v3.734c0.344,0.026,0.568,0.042,1.072,0.042V13.078z"
     id="path4"
     style="fill:#000000;fill-opacity:1" />
</svg>
