<?xml version="1.0" encoding="UTF-8" standalone="no"?>
<!-- Generator: Adobe Illustrator 18.0.0, SVG Export Plug-In . SVG Version: 6.00 Build 0)  -->

<svg
   version="1.1"
   x="0px"
   y="0px"
   viewBox="0 0 48 48"
   style="enable-background:new 0 0 48 48;"
   xml:space="preserve"
   id="svg188"
   sodipodi:docname="icon-github-dark.svg"
   inkscape:version="1.1.2 (0a00cf5339, 2022-02-04)"
   xmlns:inkscape="http://www.inkscape.org/namespaces/inkscape"
   xmlns:sodipodi="http://sodipodi.sourceforge.net/DTD/sodipodi-0.dtd"
   xmlns="http://www.w3.org/2000/svg"
   xmlns:svg="http://www.w3.org/2000/svg"><defs
   id="defs192" /><sodipodi:namedview
   id="namedview190"
   pagecolor="#ffffff"
   bordercolor="#666666"
   borderopacity="1.0"
   inkscape:pageshadow="2"
   inkscape:pageopacity="0.0"
   inkscape:pagecheckerboard="0"
   showgrid="false"
   inkscape:zoom="14.208333"
   inkscape:cx="22.27566"
   inkscape:cy="23.96481"
   inkscape:window-width="3440"
   inkscape:window-height="1361"
   inkscape:window-x="0"
   inkscape:window-y="25"
   inkscape:window-maximized="1"
   inkscape:current-layer="g169" />
<g
   id="g2">
</g>
<g
   id="g4">
</g>
<g
   id="g6">
</g>
<g
   id="g8">
</g>
<g
   id="g10">
</g>
<g
   id="g12">
</g>
<g
   id="g14">
</g>
<g
   id="g16">
</g>
<g
   id="g18">
</g>
<g
   id="g20">
</g>
<g
   id="g22">
</g>
<g
   id="g24">
</g>
<g
   id="g26">
</g>
<g
   id="g28">
</g>
<g
   id="g30">
</g>
<g
   id="g32">
</g>
<g
   id="g34">
</g>
<g
   id="g36">
</g>
<g
   id="g38">
</g>
<g
   id="g40">
</g>
<g
   id="g42">
</g>
<g
   id="g44">
</g>
<g
   id="g46">
</g>
<g
   id="g48">
</g>
<g
   id="g50">
</g>
<g
   id="g52">
</g>
<g
   id="g54">
</g>
<g
   id="g56">
</g>
<g
   id="g58">
</g>
<g
   id="g60">
</g>
<g
   id="g62">
</g>
<g
   id="g64">
</g>
<g
   id="g66">
</g>
<g
   id="g68">
</g>
<g
   id="g70">
</g>
<g
   id="g72">
</g>
<g
   id="g74">
</g>
<g
   id="g76">
</g>
<g
   id="g78">
</g>
<g
   id="g80">
</g>
<g
   id="g82">
</g>
<g
   id="g84">
</g>
<g
   id="g86">
</g>
<g
   id="g88">
</g>
<g
   id="g90">
</g>
<g
   id="g92">
</g>
<g
   id="g94">
</g>
<g
   id="g96">
</g>
<g
   id="g98">
</g>
<g
   id="g100">
</g>
<g
   id="g102">
</g>
<g
   id="g104">
</g>
<g
   id="g106">
</g>
<g
   id="g108">
</g>
<g
   id="g110">
</g>
<g
   id="g112">
</g>
<g
   id="g114">
</g>
<g
   id="g116">
</g>
<g
   id="g118">
</g>
<g
   id="g120">
</g>
<g
   id="g122">
</g>
<g
   id="g124">
</g>
<g
   id="g126">
</g>
<g
   id="g128">
</g>
<g
   id="g130">
</g>
<g
   id="g132">
</g>
<g
   id="g134">
</g>
<g
   id="g136">
</g>
<g
   id="g138">
</g>
<g
   id="g140">
</g>
<g
   id="g142">
</g>
<g
   id="g144">
</g>
<g
   id="g146">
</g>
<g
   id="g148">
</g>
<g
   id="g150">
</g>
<g
   id="g152">
</g>
<g
   id="g154">
</g>
<g
   id="g156">
</g>
<g
   id="g158">
</g>
<g
   id="g160">
</g>
<g
   id="g162">
</g>
<g
   id="g164">
</g>
<g
   id="g171">
	<g
   id="g169">
		<path
   id="rect2005"
   style="fill:#2a2a2b;fill-opacity:1;stroke-width:0.824436"
   d="M 4.9394531 0 C 2.2028418 0 0 2.2028418 0 4.9394531 L 0 43.060547 C 0 45.797158 2.2028418 48 4.9394531 48 L 43.060547 48 C 45.797158 48 48 45.797158 48 43.060547 L 48 4.9394531 C 48 2.2028418 45.797158 0 43.060547 0 L 4.9394531 0 z M 33.068359 9 C 33.235801 8.997502 33.385719 9.0157969 33.511719 9.0605469 C 33.784719 9.4995469 34.372141 10.778797 33.869141 13.591797 C 34.210141 14.207797 35.989094 15.521328 35.996094 19.236328 C 35.970094 20.605328 35.824547 21.762234 35.560547 22.740234 C 35.611547 22.740234 35.222859 23.953172 35.130859 23.951172 C 33.951859 26.541172 31.530141 27.509156 27.619141 27.910156 C 28.887141 28.707156 29.251953 29.706063 29.251953 32.414062 C 29.251953 35.121062 29.213656 35.485422 29.222656 36.107422 C 29.236656 37.129422 30.736687 37.620219 30.679688 37.949219 C 30.622688 38.276219 29.425234 38.224344 28.865234 38.027344 C 27.278234 37.476344 27.4375 36.158203 27.4375 36.158203 L 27.386719 32.537109 C 27.386719 32.537109 27.494438 30.589844 26.773438 30.589844 L 26.773438 36.515625 C 26.773437 37.802625 27.675781 38.191969 27.675781 38.667969 C 27.675781 39.486969 26.027531 38.590078 25.519531 38.080078 C 24.745531 37.304078 24.835516 35.657469 24.853516 34.355469 C 24.872516 33.097469 24.841797 30.347656 24.841797 30.347656 L 24.316406 30.357422 C 24.316406 30.357422 24.531063 36.366937 24.039062 37.460938 C 23.402062 38.866938 21.482422 39.351937 21.482422 38.710938 C 21.482422 38.279938 21.954797 38.416172 22.216797 37.451172 C 22.439797 36.630172 22.363281 30.505859 22.363281 30.505859 C 22.363281 30.505859 21.748047 30.870578 21.748047 32.017578 C 21.748047 32.542578 21.734375 35.541594 21.734375 36.433594 C 21.734375 37.556594 20.138094 38.197266 19.371094 38.197266 C 18.984094 38.197266 18.5 38.177656 18.5 37.972656 C 18.5 37.453656 19.960938 37.147406 19.960938 36.066406 C 19.960938 35.129406 19.939453 32.720703 19.939453 32.720703 C 19.939453 32.720703 19.203297 32.847656 18.154297 32.847656 C 15.508297 32.847656 14.672437 31.159797 14.273438 30.216797 C 13.756437 28.986797 13.085094 28.408266 12.371094 27.947266 C 11.933094 27.663266 11.832844 27.327422 12.339844 27.232422 C 14.681844 26.791422 15.27975 29.886859 16.84375 30.380859 C 17.95875 30.732859 19.395375 30.578187 20.109375 30.117188 C 20.204375 29.173187 20.885125 28.354828 21.453125 27.923828 C 17.475125 27.542828 15.118531 26.163359 13.894531 23.943359 C 13.879531 23.943359 13.318234 22.736328 13.365234 22.736328 C 12.983234 21.610328 12.813594 20.320953 12.808594 18.876953 C 12.808594 16.318953 13.606734 15.354234 14.677734 13.990234 C 13.858734 11.073234 14.970703 9.0800781 14.970703 9.0800781 C 14.970703 9.0800781 16.692266 8.7237344 19.947266 11.052734 C 21.711266 10.296734 26.416625 10.234766 28.640625 10.884766 C 29.835875 10.096391 31.89627 9.0174863 33.068359 9 z " />
		
	</g>
</g>
<g
   id="g173">
</g>
<g
   id="g175">
</g>
<g
   id="g177">
</g>
<g
   id="g179">
</g>
<g
   id="g181">
</g>
<g
   id="g183">
</g>
<g
   id="g185">
</g>
<g
   id="nyt_x5F_exporter_x5F_info"
   style="display:none;">
</g>
</svg>
