<?xml version="1.0" encoding="UTF-8" standalone="no"?>
<!-- Generator: Adobe Illustrator 18.0.0, SVG Export Plug-In . SVG Version: 6.00 Build 0)  -->

<svg
   version="1.1"
   x="0px"
   y="0px"
   viewBox="0 0 48 48"
   style="enable-background:new 0 0 48 48;"
   xml:space="preserve"
   id="svg16"
   sodipodi:docname="icon-academia.svg"
   inkscape:version="1.1.2 (0a00cf5339, 2022-02-04)"
   xmlns:inkscape="http://www.inkscape.org/namespaces/inkscape"
   xmlns:sodipodi="http://sodipodi.sourceforge.net/DTD/sodipodi-0.dtd"
   xmlns="http://www.w3.org/2000/svg"
   xmlns:svg="http://www.w3.org/2000/svg"><defs
   id="defs20" /><sodipodi:namedview
   id="namedview18"
   pagecolor="#ffffff"
   bordercolor="#666666"
   borderopacity="1.0"
   inkscape:pageshadow="2"
   inkscape:pageopacity="0.0"
   inkscape:pagecheckerboard="0"
   showgrid="false"
   inkscape:zoom="14.208333"
   inkscape:cx="22.27566"
   inkscape:cy="18.334311"
   inkscape:window-width="3440"
   inkscape:window-height="1361"
   inkscape:window-x="0"
   inkscape:window-y="25"
   inkscape:window-maximized="1"
   inkscape:current-layer="svg16" />
<path
   id="rect1203"
   style="fill:#000000;fill-opacity:1"
   d="M 5.0390625 0 C 2.2477954 0 0 2.2477954 0 5.0390625 L 0 42.960938 C 0 45.752205 2.2477954 48 5.0390625 48 L 42.960938 48 C 45.752205 48 48 45.752205 48 42.960938 L 48 5.0390625 C 48 2.2477954 45.752205 0 42.960938 0 L 5.0390625 0 z M 18.953125 9.7167969 C 21.400743 9.7142969 23.847305 9.7130969 26.294922 9.7167969 C 29.701808 18.229065 33.106787 26.745542 36.513672 35.257812 C 36.854855 36.247985 37.983944 36.551447 38.916016 36.673828 L 38.916016 38.146484 L 25.615234 38.146484 L 25.615234 36.693359 C 26.606643 36.616719 27.778868 36.664589 28.515625 35.880859 C 29.097861 35.182423 28.765361 34.232629 28.552734 33.455078 C 28.097824 32.160807 27.55593 30.89786 27.066406 29.617188 L 16.71875 29.617188 C 16.283618 30.817509 15.865834 32.024732 15.388672 33.208984 C 15.085811 33.870335 14.727056 34.556285 14.785156 35.306641 C 14.829656 35.745481 15.128852 36.128162 15.542969 36.285156 C 16.220391 36.570711 16.966491 36.61956 17.693359 36.664062 C 17.697059 37.15853 17.703466 37.652016 17.697266 38.146484 L 9.2480469 38.146484 L 9.2480469 36.671875 C 10.067629 36.555675 11.091743 36.34109 11.408203 35.460938 C 14.324329 28.032789 17.240321 20.601456 20.160156 13.175781 C 20.246686 13.017551 20.226834 12.840588 20.146484 12.683594 C 19.745965 11.694658 19.352408 10.705733 18.953125 9.7167969 z M 21.732422 16.412109 C 20.434443 19.891928 19.101111 23.360198 17.712891 26.806641 C 19.374304 26.810341 21.035135 26.808594 22.695312 26.808594 L 25.90625 26.808594 C 24.514322 23.342344 23.125586 19.877094 21.732422 16.412109 z " /><g
   id="Layer_491">
	
</g>
<g
   id="Layer_1">
</g>
</svg>
