<?xml version="1.0" encoding="UTF-8" standalone="no"?>
<!-- Generator: Adobe Illustrator 18.0.0, SVG Export Plug-In . SVG Version: 6.00 Build 0)  -->

<svg
   version="1.1"
   x="0px"
   y="0px"
   viewBox="0 0 48 48"
   style="enable-background:new 0 0 48 48;"
   xml:space="preserve"
   id="svg16"
   sodipodi:docname="icon-twitter.svg"
   inkscape:version="1.1.2 (0a00cf5339, 2022-02-04)"
   xmlns:inkscape="http://www.inkscape.org/namespaces/inkscape"
   xmlns:sodipodi="http://sodipodi.sourceforge.net/DTD/sodipodi-0.dtd"
   xmlns="http://www.w3.org/2000/svg"
   xmlns:svg="http://www.w3.org/2000/svg"><defs
   id="defs20">
	
</defs><sodipodi:namedview
   id="namedview18"
   pagecolor="#ffffff"
   bordercolor="#666666"
   borderopacity="1.0"
   inkscape:pageshadow="2"
   inkscape:pageopacity="0.0"
   inkscape:pagecheckerboard="0"
   showgrid="false"
   inkscape:zoom="20.093617"
   inkscape:cx="12.765248"
   inkscape:cy="26.500953"
   inkscape:window-width="3440"
   inkscape:window-height="1361"
   inkscape:window-x="0"
   inkscape:window-y="25"
   inkscape:window-maximized="1"
   inkscape:current-layer="svg16" />
<path
   id="rect1203"
   style="fill:#000000;fill-opacity:1"
   d="M 5.0390625 0 C 2.2477954 0 0 2.2477954 0 5.0390625 L 0 42.960938 C 0 45.752205 2.2477954 48 5.0390625 48 L 42.960938 48 C 45.752205 48 48 45.752205 48 42.960938 L 48 5.0390625 C 48 2.2477954 45.752205 0 42.960938 0 L 5.0390625 0 z M 9.703125 8.9082031 L 18.072266 8.9082031 L 25.328125 19.46875 L 34.412109 8.9082031 L 36.890625 8.9082031 L 26.427734 21.070312 L 37.806641 37.630859 L 29.4375 37.630859 L 21.775391 26.480469 L 12.181641 37.630859 L 9.703125 37.630859 L 20.675781 24.876953 L 9.703125 8.9082031 z M 13.076172 10.775391 L 21.921875 23.427734 L 23.033203 25.017578 L 23.033203 25.019531 L 30.605469 35.849609 L 34.414062 35.849609 L 25.134766 22.576172 L 24.021484 20.986328 L 16.882812 10.775391 L 13.076172 10.775391 z " />
<g
   id="Layer_1">
</g>
</svg>
