<?xml version="1.0" encoding="UTF-8" standalone="no"?>
<!-- Generator: Adobe Illustrator 18.0.0, SVG Export Plug-In . SVG Version: 6.00 Build 0)  -->

<svg
   version="1.1"
   x="0px"
   y="0px"
   viewBox="0 0 48 48"
   style="enable-background:new 0 0 48 48;"
   xml:space="preserve"
   id="svg16"
   sodipodi:docname="icon-linkedin-hover.svg"
   inkscape:version="1.1.2 (0a00cf5339, 2022-02-04)"
   xmlns:inkscape="http://www.inkscape.org/namespaces/inkscape"
   xmlns:sodipodi="http://sodipodi.sourceforge.net/DTD/sodipodi-0.dtd"
   xmlns="http://www.w3.org/2000/svg"
   xmlns:svg="http://www.w3.org/2000/svg"><defs
   id="defs20">
	

		
		
	
			
			
			
		</defs><sodipodi:namedview
   id="namedview18"
   pagecolor="#ffffff"
   bordercolor="#666666"
   borderopacity="1.0"
   inkscape:pageshadow="2"
   inkscape:pageopacity="0.0"
   inkscape:pagecheckerboard="0"
   showgrid="false"
   inkscape:zoom="14.208333"
   inkscape:cx="22.83871"
   inkscape:cy="18.334311"
   inkscape:window-width="3440"
   inkscape:window-height="1361"
   inkscape:window-x="0"
   inkscape:window-y="25"
   inkscape:window-maximized="1"
   inkscape:current-layer="svg16" />
<path
   id="rect1203"
   style="fill:#979494;fill-opacity:1"
   d="M 5.0390625 0 C 2.2477954 0 0 2.2477954 0 5.0390625 L 0 42.960938 C 0 45.752204 2.2477954 48 5.0390625 48 L 42.960938 48 C 45.752204 48 48 45.752204 48 42.960938 L 48 5.0390625 C 48 2.2477954 45.752204 0 42.960938 0 L 5.0390625 0 z M 13.666016 8.1386719 A 3.5 3.5 0 0 1 17.166016 11.638672 A 3.5 3.5 0 0 1 13.666016 15.138672 A 3.5 3.5 0 0 1 10.166016 11.638672 A 3.5 3.5 0 0 1 13.666016 8.1386719 z M 10.166016 18.138672 L 17.166016 18.138672 L 17.166016 38.138672 L 10.166016 38.138672 L 10.166016 18.138672 z M 21.166016 18.138672 L 26.742188 18.138672 L 26.742188 20.837891 L 26.828125 20.837891 C 27.658125 19.261891 29.687938 18.138672 32.710938 18.138672 C 39.001937 18.138672 40.166016 21.751437 40.166016 27.148438 L 40.166016 38.138672 L 34.166016 38.138672 L 34.166016 28.394531 C 34.166016 26.069531 33.908656 23.082031 30.722656 23.082031 C 27.488656 23.082031 26.994141 25.612562 26.994141 28.226562 L 26.994141 38.138672 L 21.166016 38.138672 L 21.166016 18.138672 z " />
<g
   id="Layer_1">
</g>
</svg>
