<svg xmlns="http://www.w3.org/2000/svg" enable-background="new 0 0 24 24" viewBox="0 0 24 24" id="academia-edu"><path fill="#424242" d="m7.851.502c1.98-.002 3.96-.002 5.94.001 2.756 6.886 5.51 13.774 8.266 20.66.276.801 1.189 1.047 1.943 1.146v1.191c-3.586 0-7.174 0-10.76 0 0-.392 0-.784 0-1.175.802-.062 1.751-.024 2.347-.658.471-.565.202-1.332.03-1.961-.368-1.047-.806-2.07-1.202-3.106-2.791 0-5.581 0-8.371 0-.352.971-.69 1.948-1.076 2.906-.245.535-.536 1.09-.489 1.697.036.355.278.665.613.792.548.231 1.152.27 1.74.306.003.4.008.799.003 1.199-2.277 0-4.556 0-6.835 0 0-.398 0-.796 0-1.192.663-.094 1.492-.268 1.748-.98 2.359-6.009 4.717-12.02 7.079-18.027.07-.128.055-.271-.01-.398-.324-.8-.643-1.601-.966-2.401zm-1.003 13.825c1.344.003 2.688.002 4.031.002h2.597c-1.126-2.804-2.25-5.608-3.377-8.411-1.05 2.815-2.128 5.621-3.251 8.409z"></path><path fill="#393939" d="m10.101.5c-.75 0-1.5.001-2.25.001.323.8.643 1.602.967 2.401.065.126.08.27.01.398-2.362 6.007-4.72 12.018-7.079 18.027-.257.713-1.086.886-1.749.981v1.192h6.835c.005-.4 0-.799-.003-1.198-.588-.036-1.192-.075-1.74-.306-.335-.126-.577-.437-.613-.792-.047-.607.244-1.163.489-1.697.386-.958.725-1.936 1.076-2.906h4.057v-2.271c-.128 0-.255 0-.383 0-.957 0-1.914 0-2.87-.002 1.123-2.788 2.201-5.594 3.252-8.409 0 .001.001.002.001.003z"></path></svg>