<?xml version="1.0" encoding="UTF-8" standalone="no"?>
<!-- Generator: Adobe Illustrator 18.0.0, SVG Export Plug-In . SVG Version: 6.00 Build 0)  -->

<svg
   version="1.1"
   x="0px"
   y="0px"
   viewBox="0 0 48 48"
   style="enable-background:new 0 0 48 48;"
   xml:space="preserve"
   id="svg16"
   sodipodi:docname="linkedin.svg"
   inkscape:version="1.1.2 (0a00cf5339, 2022-02-04)"
   xmlns:inkscape="http://www.inkscape.org/namespaces/inkscape"
   xmlns:sodipodi="http://sodipodi.sourceforge.net/DTD/sodipodi-0.dtd"
   xmlns="http://www.w3.org/2000/svg"
   xmlns:svg="http://www.w3.org/2000/svg"><defs
   id="defs20" /><sodipodi:namedview
   id="namedview18"
   pagecolor="#ffffff"
   bordercolor="#666666"
   borderopacity="1.0"
   inkscape:pageshadow="2"
   inkscape:pageopacity="0.0"
   inkscape:pagecheckerboard="0"
   showgrid="false"
   inkscape:zoom="14.208333"
   inkscape:cx="23.40176"
   inkscape:cy="18.334311"
   inkscape:window-width="3440"
   inkscape:window-height="1361"
   inkscape:window-x="0"
   inkscape:window-y="25"
   inkscape:window-maximized="1"
   inkscape:current-layer="svg16" />
<rect
   style="fill:#000000;fill-opacity:1"
   id="rect1203"
   width="48"
   height="48"
   x="0"
   y="0"
   ry="5.0383883" /><g
   id="Layer_491">
	<g
   id="g12">
		<path
   style="fill:#000000;fill-opacity:1"
   d="M48,36c0,6.629-5.373,12-12,12H12C5.371,48,0,42.629,0,36V12C0,5.373,5.371,0,12,0h24    c6.627,0,12,5.373,12,12V36z"
   id="path2" />
		<g
   id="g10">
			<rect
   x="9"
   y="19"
   style="fill:#FFFFFF;"
   width="7"
   height="20"
   id="rect4" />
			<circle
   style="fill:#FFFFFF;"
   cx="12.5"
   cy="12.5"
   r="3.5"
   id="circle6" />
			<path
   style="fill:#FFFFFF;"
   d="M39,28.009C39,22.612,37.836,19,31.545,19c-3.023,0-5.053,1.123-5.883,2.699h-0.086V19H20v20     h5.828v-9.913c0-2.614,0.494-5.145,3.728-5.145c3.186,0,3.443,2.989,3.443,5.314V39h6V28.009z"
   id="path8" />
		</g>
	</g>
</g>
<g
   id="Layer_1">
</g>
</svg>
