<?xml version="1.0" encoding="UTF-8" standalone="no"?>
<!-- Generator: Adobe Illustrator 18.0.0, SVG Export Plug-In . SVG Version: 6.00 Build 0)  -->

<svg
   version="1.1"
   x="0px"
   y="0px"
   viewBox="0 0 48 48"
   style="enable-background:new 0 0 48 48;"
   xml:space="preserve"
   id="svg16"
   sodipodi:docname="icon-twitter-boxed.svg"
   inkscape:version="1.1.2 (0a00cf5339, 2022-02-04)"
   xmlns:inkscape="http://www.inkscape.org/namespaces/inkscape"
   xmlns:sodipodi="http://sodipodi.sourceforge.net/DTD/sodipodi-0.dtd"
   xmlns="http://www.w3.org/2000/svg"
   xmlns:svg="http://www.w3.org/2000/svg"><defs
   id="defs20" /><sodipodi:namedview
   id="namedview18"
   pagecolor="#ffffff"
   bordercolor="#666666"
   borderopacity="1.0"
   inkscape:pageshadow="2"
   inkscape:pageopacity="0.0"
   inkscape:pagecheckerboard="0"
   showgrid="false"
   inkscape:zoom="14.208333"
   inkscape:cx="55.073315"
   inkscape:cy="35.36657"
   inkscape:window-width="3440"
   inkscape:window-height="1361"
   inkscape:window-x="0"
   inkscape:window-y="25"
   inkscape:window-maximized="1"
   inkscape:current-layer="svg16" />
<path
   id="rect1203"
   style="fill:#000000;fill-opacity:1"
   d="M 5.0390625 0 C 2.2477954 0 0 2.2477954 0 5.0390625 L 0 42.960938 C 0 45.752205 2.2477954 48 5.0390625 48 L 42.960938 48 C 45.752205 48 48 45.752205 48 42.960938 L 48 5.0390625 C 48 2.2477954 45.752205 0 42.960938 0 L 5.0390625 0 z M 3.8339844 3.2910156 L 15.853516 3.2910156 L 26.273438 18.457031 L 39.322266 3.2910156 L 42.882812 3.2910156 L 27.855469 20.757812 L 44.197266 44.542969 L 32.177734 44.542969 L 21.173828 28.525391 L 7.3945312 44.542969 L 3.8339844 44.542969 L 19.591797 26.224609 L 3.8339844 3.2910156 z M 8.6777344 5.9726562 L 21.382812 24.144531 L 22.978516 26.427734 L 33.853516 41.984375 L 39.324219 41.984375 L 25.996094 22.921875 L 24.400391 20.636719 L 14.148438 5.9726562 L 8.6777344 5.9726562 z " /><g
   id="Layer_491">
	
</g>
<g
   id="Layer_1">
</g>
</svg>
