<?xml version="1.0" encoding="UTF-8" standalone="no"?>
<!-- Generator: Adobe Illustrator 18.0.0, SVG Export Plug-In . SVG Version: 6.00 Build 0)  -->

<svg
   version="1.1"
   x="0px"
   y="0px"
   viewBox="0 0 48 48"
   style="enable-background:new 0 0 48 48;"
   xml:space="preserve"
   id="svg16"
   sodipodi:docname="icon-academia-boxed.svg"
   inkscape:version="1.1.2 (0a00cf5339, 2022-02-04)"
   xmlns:inkscape="http://www.inkscape.org/namespaces/inkscape"
   xmlns:sodipodi="http://sodipodi.sourceforge.net/DTD/sodipodi-0.dtd"
   xmlns="http://www.w3.org/2000/svg"
   xmlns:svg="http://www.w3.org/2000/svg"><defs
   id="defs20" /><sodipodi:namedview
   id="namedview18"
   pagecolor="#ffffff"
   bordercolor="#666666"
   borderopacity="1.0"
   inkscape:pageshadow="2"
   inkscape:pageopacity="0.0"
   inkscape:pagecheckerboard="0"
   showgrid="false"
   inkscape:zoom="14.208333"
   inkscape:cx="22.27566"
   inkscape:cy="18.334311"
   inkscape:window-width="3440"
   inkscape:window-height="1361"
   inkscape:window-x="0"
   inkscape:window-y="25"
   inkscape:window-maximized="1"
   inkscape:current-layer="Layer_491" />
<rect
   style="fill:#000000;fill-opacity:1"
   id="rect1203"
   width="48"
   height="48"
   x="0"
   y="0"
   ry="5.0383883" /><g
   id="Layer_491">
	
<path
   fill="#424242"
   d="m 18.952936,9.7164098 c 2.447618,-0.0025 4.895235,-0.0025 7.342852,0.0012 3.406886,8.5122682 6.811299,17.0270092 10.218184,25.5392792 0.341183,0.990172 1.469807,1.29427 2.401879,1.416651 v 1.472279 c -4.432907,0 -8.868286,0 -13.301193,0 0,-0.484579 0,-0.969158 0,-1.4525 0.991409,-0.07664 2.164535,-0.02967 2.901292,-0.8134 0.582236,-0.698436 0.249707,-1.646579 0.03708,-2.42413 -0.45491,-1.294271 -0.996353,-2.558873 -1.485877,-3.839546 -3.450151,0 -6.899066,0 -10.347981,0 -0.435132,1.200322 -0.852958,2.40806 -1.33012,3.592312 -0.302861,0.661351 -0.662587,1.347425 -0.604487,2.097781 0.0445,0.43884 0.343655,0.822053 0.757772,0.979047 0.677422,0.285555 1.424069,0.333766 2.150937,0.378268 0.0037,0.494468 0.0099,0.9877 0.0037,1.482168 -2.81476,0 -5.631992,0 -8.4492248,0 0,-0.491996 0,-0.983992 0,-1.473515 0.8195818,-0.1162 1.8443668,-0.331294 2.1608268,-1.211447 2.916126,-7.428148 5.831015,-14.858768 8.75085,-22.284443 0.08653,-0.15823 0.06799,-0.335002 -0.01236,-0.491996 C 19.746547,11.695482 19.352208,10.70531 18.952925,9.7163738 Z M 17.713057,26.806464 c 1.661413,0.0037 3.322826,0.0025 4.983003,0.0025 h 3.210335 c -1.391928,-3.46625 -2.781384,-6.932471 -4.174548,-10.397456 -1.297979,3.479819 -2.63057,6.948513 -4.01879,10.394956 z"
   id="path2"
   style="fill:#ffffff;stroke-width:1.23617" /></g>
<g
   id="Layer_1">
</g>
</svg>
